# Blender v2.80 (sub 75) OBJ File: 'street props pack.blend'
# www.blender.org
mtllib fence post end.mtl
o Cube.013_Cube.007
v -3.837632 0.057802 3.629751
v -3.837632 2.824518 3.629751
v -3.837632 0.057802 3.074863
v -3.837632 2.824518 3.074863
v -3.382484 0.057802 3.629751
v -3.382484 2.824518 3.629751
v -3.382484 0.057802 3.074863
v -3.382484 2.824518 3.074863
v -3.707085 1.681795 4.834270
v -3.707085 2.304615 4.834270
v -3.707085 1.681795 3.251070
v -3.707085 2.304615 3.251070
v -3.513032 1.681795 4.834270
v -3.513032 2.304615 4.834270
v -3.513032 1.681795 3.251070
v -3.513032 2.304615 3.251070
v -3.707085 0.757218 4.834270
v -3.707085 1.380038 4.834270
v -3.707085 0.757218 3.251070
v -3.707085 1.380038 3.251070
v -3.513032 0.757218 4.834270
v -3.513032 1.380038 4.834270
v -3.513032 0.757218 3.251070
v -3.513032 1.380038 3.251070
vt 0.832332 0.001001
vt 0.667668 0.001001
vt 0.667668 0.332332
vt 0.832332 0.332332
vt 0.832332 0.834334
vt 0.667668 0.834334
vt 0.667668 0.998999
vt 0.832332 0.998999
vt 0.332332 0.832332
vt 0.332332 0.667668
vt 0.001001 0.667668
vt 0.001001 0.832332
vt 0.998999 0.667668
vt 0.834334 0.667668
vt 0.834334 0.832332
vt 0.998999 0.832332
vt 0.998999 0.001001
vt 0.834334 0.001001
vt 0.834334 0.332332
vt 0.998999 0.332332
vt 0.332332 0.998999
vt 0.332332 0.834334
vt 0.001001 0.834334
vt 0.001001 0.998999
vt 0.998999 0.334334
vt 0.834334 0.334334
vt 0.834334 0.665666
vt 0.998999 0.665666
vt 0.998999 0.834334
vt 0.834334 0.834334
vt 0.834334 0.998999
vt 0.998999 0.998999
vt 0.665666 0.998999
vt 0.665666 0.834334
vt 0.334334 0.834334
vt 0.334334 0.998999
vt 0.832332 0.667668
vt 0.667668 0.667668
vt 0.667668 0.832332
vt 0.832332 0.832332
vt 0.832332 0.334334
vt 0.667668 0.334334
vt 0.667668 0.665666
vt 0.832332 0.665666
vt 0.665666 0.832332
vt 0.665666 0.667668
vt 0.334334 0.667668
vt 0.334334 0.832332
vt 0.332332 0.334334
vt 0.001001 0.334334
vt 0.001001 0.665666
vt 0.332332 0.665666
vt 0.498999 0.332332
vt 0.498999 0.001001
vt 0.334334 0.001001
vt 0.334334 0.332332
vt 0.332332 0.001001
vt 0.001001 0.001001
vt 0.001001 0.332332
vt 0.332332 0.332332
vt 0.334334 0.498999
vt 0.665666 0.498999
vt 0.665666 0.334334
vt 0.334334 0.334334
vt 0.665666 0.001001
vt 0.501001 0.001001
vt 0.501001 0.332332
vt 0.665666 0.332332
vt 0.665666 0.665666
vt 0.665666 0.501001
vt 0.334334 0.501001
vt 0.334334 0.665666
vn -1.0000 0.0000 0.0000
vn 0.0000 0.0000 -1.0000
vn 1.0000 0.0000 0.0000
vn 0.0000 0.0000 1.0000
vn 0.0000 -1.0000 0.0000
vn 0.0000 1.0000 0.0000
usemtl light_brown
s off
f 9/1/1 10/2/1 12/3/1 11/4/1
f 11/5/2 12/6/2 16/7/2 15/8/2
f 15/9/3 16/10/3 14/11/3 13/12/3
f 13/13/4 14/14/4 10/15/4 9/16/4
f 11/17/5 15/18/5 13/19/5 9/20/5
f 16/21/6 12/22/6 10/23/6 14/24/6
f 17/25/1 18/26/1 20/27/1 19/28/1
f 19/29/2 20/30/2 24/31/2 23/32/2
f 23/33/3 24/34/3 22/35/3 21/36/3
f 21/37/4 22/38/4 18/39/4 17/40/4
f 19/41/5 23/42/5 21/43/5 17/44/5
f 24/45/6 20/46/6 18/47/6 22/48/6
usemtl dark_brown
f 1/49/1 2/50/1 4/51/1 3/52/1
f 3/53/2 4/54/2 8/55/2 7/56/2
f 7/57/3 8/58/3 6/59/3 5/60/3
f 5/61/4 6/62/4 2/63/4 1/64/4
f 3/65/5 7/66/5 5/67/5 1/68/5
f 8/69/6 4/70/6 2/71/6 6/72/6
